# xmcd CD database file
#
# Track frame offsets:
#	150
#	12993
#	17414
#	30190
#	37911
#	46145
#	61620
#	71540
#	86451
#	93118
#	108053
#	112960
#	120412
#	131509
#	142687
#	150381
#	165640
#	170846
#	181063
#	194532
#	198842
#	208729
#	218570
#	220412
#	226692
#	242240
#	247209
#	254164
#	259012
#	263866
#	268692
#	273573
#	278468
#	283341
#	288253
#	293046
#	297962
#	302720
#	307552
#	312524
#	315102
#	317678
#	320236
#	322833
#	325513
#	328075
#	330653
#	333372
#	336032
#	338647
#	341314
#
# Disc length: 4585 seconds
#
# Revision: 0
# Processed by: cddbd v1.5.1PL0 Copyright (c) Steve Scherf et al.
# Submitted via: CDex 1.51
#
DISCID=cf11e733
DTITLE=Sonoton Authentic Series - SAS 213 - South East Asia - Today
DYEAR=1999
DGENRE=Contentum
TTITLE0=Malaysia - Malaysian song 1
TTITLE1=Malaysia - Malaysian song 2
TTITLE2=Malaysia - Jiwa Gendang 1
TTITLE3=Malaysia - Jiwa Gendang 2
TTITLE4=Malaysia - Jiwa Gendang 3
TTITLE5=Vietnam - Pho Nganh 1
TTITLE6=Vietnam - Pho Nganh 2
TTITLE7=Indonesia - Daybreak in the wild 1
TTITLE8=Indonesia - Daybreak in the wild 2
TTITLE9=Indonesia - Jaya 1
TTITLE10=Indonesia - Jaya 2
TTITLE11=Indonesia - Jaya 3
TTITLE12=Philippines - Ngayon 1
TTITLE13=Philippines - Ngayon 2
TTITLE14=Philippines - Ngayon 3
TTITLE15=Philippines - Istoryahan 1
TTITLE16=Philippines - Istoryahan 2
TTITLE17=Philippines - Dali Na 1
TTITLE18=Philippines - Dali Na 2
TTITLE19=Philippines - Dali Na 3
TTITLE20=Philippines - Tunog Filipino 1
TTITLE21=Philippines - Tunog Filipino 2
TTITLE22=Philippines - Tunog Filipino 3
TTITLE23=Philippines - Tunog Filipino 4
TTITLE24=Thailand - Walk In The City 1
TTITLE25=Thailand - Walk In The City 2
TTITLE26=Thailand - Walk In The City 3
TTITLE27=59 second versions - Malaysian Song
TTITLE28=59 second versions - Jiwa Gendang 1
TTITLE29=59 second versions - Jiwa Gendang 2
TTITLE30=59 second versions - Pho Nganh 1
TTITLE31=59 second versions - Pho Nganh 2
TTITLE32=59 second versions - Daybreak in the wild
TTITLE33=59 second versions - Jaya
TTITLE34=59 second versions - Ngayon
TTITLE35=59 second versions - Istoryahan
TTITLE36=59 second versions - Dali Na
TTITLE37=59 second versions - Tunog Filipino
TTITLE38=59 second versions - Walk in the city
TTITLE39=29 second versions - Malaysian Song
TTITLE40=29 second versions - Jiwa Gendang 1
TTITLE41=29 second versions - Jiwa Gendang 2
TTITLE42=29 second versions - Pho Nganh 1
TTITLE43=29 second versions - Pho Nganh 2
TTITLE44=29 second versions - Daybreak in the wild
TTITLE45=29 second versions - Jaya
TTITLE46=29 second versions - Ngayon
TTITLE47=29 second versions - Istoryahan
TTITLE48=29 second versions - Dali Na
TTITLE49=29 second versions - Tunog Filipino
TTITLE50=29 second versions - Walk in the city
EXTD=YEAR: 1999
EXTT0=
EXTT1=
EXTT2=
EXTT3=
EXTT4=
EXTT5=
EXTT6=
EXTT7=
EXTT8=
EXTT9=
EXTT10=
EXTT11=
EXTT12=
EXTT13=
EXTT14=
EXTT15=
EXTT16=
EXTT17=
EXTT18=
EXTT19=
EXTT20=
EXTT21=
EXTT22=
EXTT23=
EXTT24=
EXTT25=
EXTT26=
EXTT27=
EXTT28=
EXTT29=
EXTT30=
EXTT31=
EXTT32=
EXTT33=
EXTT34=
EXTT35=
EXTT36=
EXTT37=
EXTT38=
EXTT39=
EXTT40=
EXTT41=
EXTT42=
EXTT43=
EXTT44=
EXTT45=
EXTT46=
EXTT47=
EXTT48=
EXTT49=
EXTT50=
PLAYORDER=
